<?xml version="1.0" encoding="UTF-8"?>
<svg width="166px" height="233px" viewBox="0 0 166 233" version="1.1" xmlns="http://www.w3.org/2000/svg" xmlns:xlink="http://www.w3.org/1999/xlink">
    <!-- Generator: Sketch 60.1 (88133) - https://sketch.com -->
    <title>peep-51</title>
    <desc>Created with Sketch.</desc>
    <g id="Introduction" stroke="none" stroke-width="1" fill="none" fill-rule="evenodd">
        <g id="variations-busts" transform="translate(-1842.000000, -485.000000)">
            <g id="images" transform="translate(126.000000, 110.000000)">
                <g id="a-person/bust" transform="translate(1680.000000, 324.000000)">
                    <g id="body/Coffee" transform="translate(31.056338, 135.052838)" fill-rule="evenodd">
                        <rect id="â˜•ï¸-Cup" fill="#FDEA6B" x="97.3944121" y="58.966835" width="48.3802817" height="59.6007828"></rect>
                        <path d="M83.2831727,0.670696426 C88.4983136,-3.30205504 101.591201,-5.08859907 107.157257,-1.26337011 C112.654863,2.57792147 113.254195,8.78981589 115.816026,14.5043051 C118.233138,13.3640703 122.224742,14.9970761 122.925517,17.2407708 C123.794672,18.2990017 123.833708,21.2721424 124.433074,22.6947412 C150.512369,26.8475631 154.471694,47.1876279 157.610708,70.2793383 C161.763384,93.711534 171.190356,117.092583 167.097891,141.204693 C167.63113,141.976544 168.051553,142.726837 168.440285,143.61789 C169.371764,145.20344 168.171976,147.447769 166.293173,147.360904 C163.861271,147.147229 161.453454,146.855565 159.010145,146.764473 C152.23696,146.529158 145.45759,146.557214 138.681834,146.643333 L137.757891,146.655417 C103.610074,147.080653 69.4641586,147.918657 35.3148628,148.140897 C34.0759896,148.142689 33.4694403,147.031197 33.6348628,145.934712 C33.9680319,143.727158 34.2771164,141.518548 34.599722,139.309937 C26.5225389,141.444152 17.9357783,141.981193 9.88141214,139.534391 C9.31796144,138.960152 11.194229,139.271471 11.4919051,139.184184 C4.07936989,134.11706 6.29303186,123.442391 6.94965158,115.75389 C11.0326093,89.4088647 12.4719755,60.2598549 28.2471164,37.7791583 C35.0716938,28.6048647 45.0771164,21.3411778 56.5740882,19.706806 L56.8930486,19.6631176 C60.2547523,19.2147068 64.0013406,19.0702612 66.9405671,17.2407708 C70.2463162,14.6007292 71.6550223,9.72263132 75.1328095,9.67696584 C76.2811923,9.66188687 77.8434099,11.115242 79.5245107,12.1019998 C79.6500085,9.93129715 80.819368,8.09941958 81.077549,6.41636011 L81.0984487,6.27242768 C81.367855,4.31021287 80.9988935,2.54484462 83.2831727,0.670696426 Z M139.329992,70.9753626 C132.000964,65.8819251 113.068648,68.4411768 112.635241,68.726389 C111.680946,69.3543107 111.270004,69.4098432 110.753877,70.2252326 C110.244299,70.2928647 109.735145,70.363033 109.226412,70.4353148 C108.205778,70.7688256 108.962116,72.024669 110.14099,71.5766064 C109.431923,74.6357534 111.518639,76.8113261 112.34937,79.8356232 C112.619102,80.8175913 112.359105,82.5836761 112.34937,83.5870095 C112.429931,84.8662917 113.843778,86.3773871 113.608138,87.6608362 C112.770398,92.2237186 108.224333,96.6747323 110.14099,101.099746 C111.410708,103.598963 115.229581,104.873366 117.768595,105.722994 C123.028947,107.742657 132.194626,105.646948 135.251034,101.099746 C136.881277,98.6743364 138.769989,92.5562358 139.742031,90.6585215 L139.95748,87.648136 C140.488805,80.1648947 140.961423,72.1091545 139.329992,70.9753626 Z" id="âœ‹-Skin" fill="#EDB98A"></path>
                        <path d="M74.8616641,9.69055279 L76.9590931,10.9781352 L89.1404064,17.0020727 C91.5019238,17.6635322 92.6826825,18.4562908 92.6826825,19.3803484 L92.6826825,28.7894811 C92.6826825,30.0486259 94.8987731,32.9023086 99.3309544,37.3505291 L103.425681,33.2668882 L103.33413,32.7322443 C102.944482,30.4284635 102.749658,28.8873959 102.749658,28.1090415 C102.749658,27.2719433 106.755656,24.0941888 114.767653,18.575778 L118.272785,15.2745327 L117.899076,14.1375065 C120.060287,14.2396888 122.404042,15.5711468 122.925517,17.2407708 C123.794672,18.2990017 123.833708,21.2721424 124.433074,22.6947412 C150.512369,26.8475631 154.471694,47.1876279 157.610708,70.2793383 C161.763384,93.711534 171.190356,117.092583 167.097891,141.204693 C167.63113,141.976544 168.051553,142.726837 168.440285,143.61789 C169.371764,145.20344 168.171976,147.447769 166.293173,147.360904 C163.861271,147.147229 161.453454,146.855565 159.010145,146.764473 C152.23696,146.529158 145.45759,146.557214 138.681834,146.643333 L137.757891,146.655417 C103.610074,147.080653 69.4641586,147.918657 35.3148628,148.140899 C34.0759896,148.142689 33.4694403,147.031197 33.6348628,145.934712 C33.9680319,143.727158 34.2771164,141.518548 34.599722,139.309937 C26.5225389,141.444152 17.9357783,141.981193 9.88141214,139.534391 C9.31796144,138.960152 11.194229,139.271471 11.4919051,139.184184 C4.07936989,134.11706 6.29303186,123.442391 6.94965158,115.75389 C11.0326093,89.4088647 12.4719755,60.2598549 28.2471164,37.7791583 C35.0716938,28.6048647 45.0771164,21.3411778 56.5740882,19.706806 L56.8930486,19.6631176 L57.2143364,19.6212672 C60.4918173,19.2038375 64.0946494,19.0121821 66.9405671,17.2407708 C70.1590582,14.6704153 71.5793326,9.97859489 74.8616641,9.69055279 Z M104.049778,64.91756 C102.855016,64.91756 100.408146,66.7736599 96.709168,70.4858596 L96.3833024,70.6365388 C91.911861,72.7142982 88.9496504,74.5166683 87.4966706,76.0436492 L87.4448105,76.0987213 C85.9769948,77.6740185 83.0702915,81.8629491 78.7247005,88.6655131 L72.4317425,92.3884504 L70.0506708,92.3884504 L68.3554323,104.689829 L72.4317425,113.473402 L81.6649408,110.362046 L96.709168,106.395134 L105.341974,97.6335235 L110.211726,95.9980618 C109.620931,97.7056569 109.406756,99.4046092 110.14099,101.099746 C111.410708,103.598963 115.229581,104.873366 117.768595,105.722994 C123.028947,107.742657 132.194626,105.646948 135.251034,101.099746 C136.881277,98.6743364 138.769989,92.5562358 139.742031,90.6585215 L140.020826,86.7478787 C140.523248,79.5315106 140.896166,72.0638028 139.329992,70.9753626 C132.000964,65.8819251 113.068648,68.4411768 112.635241,68.726389 C111.680946,69.3543107 111.270004,69.4098432 110.753877,70.2252326 L110.486711,70.2610107 L111.989191,68.2225238 L111.457187,67.9383632 C107.66116,65.9244944 105.192024,64.91756 104.049778,64.91756 Z M110.14099,71.5766064 C109.462157,74.5053128 111.345769,76.6241887 112.236567,79.4532542 L109.960461,75.0943966 L109.960438,71.6331165 C110.019349,71.6186537 110.079596,71.5999407 110.14099,71.5766064 Z" id="ðŸ‘•-Top" fill="#00a8ff"></path>
                        <path d="M73.855884,9.23568821 C74.3618699,8.78741423 75.1106023,9.35066277 74.789053,9.95618136 C74.0665178,11.3170659 73.325391,12.606514 72.3556727,13.8095199 C71.767715,14.5388898 71.1379262,15.2287371 70.4996868,15.9109759 C72.1376445,17.3285023 73.5423628,19.0884162 74.8689121,20.7377939 C76.5651797,22.8472812 78.1689121,25.0461696 80.0730671,26.9764318 C81.9509754,28.8801044 84.0274117,30.2108369 86.5380762,31.0982159 L87.0451523,31.2744088 C89.5673087,32.1601945 92.2629691,33.3564172 93.6846164,35.7453555 C93.9649685,36.2164553 93.4004614,36.798514 92.9259544,36.5045258 C90.4556023,34.9743497 87.5529966,34.6666236 84.8639826,33.6555238 C82.2664474,32.6788741 80.0020812,31.1757508 78.0013769,29.2573242 C76.004053,27.3420679 74.3270107,25.1630463 72.577715,23.0300992 C70.8478558,20.9210346 68.9853206,19.119696 66.9391938,17.3352655 C63.7816883,19.4602629 60.1774727,20.3849091 56.5126004,21.2930707 L56.1125741,21.3921344 C52.4432783,22.3009407 48.7936305,23.356424 45.3512361,24.939015 C42.3161657,26.3341383 39.3309544,28.0002127 36.8587009,30.2705375 C34.2343347,32.6799309 32.1917995,35.7571911 30.3222924,38.766608 C26.1404614,45.4993829 23.2004614,52.8755082 20.612222,60.3412459 C17.9202502,68.1066784 15.66856,76.0276647 13.8508136,84.0427019 C12.9263065,88.1196491 12.1754614,92.2255512 11.5583488,96.360197 C11.2613065,98.3515395 10.9974333,100.347109 10.7656727,102.347117 C10.5182783,104.482811 10.4614474,106.680009 9.80651778,108.733489 C9.52574313,109.613551 8.86278538,109.978765 8.19919383,109.947696 L8.06441017,111.634011 C7.88568116,113.882345 7.71906707,116.131383 7.66278538,118.393676 C7.56942347,122.155289 7.61175527,125.906073 7.88222663,129.659715 L7.92053186,130.171594 C8.13306707,132.911117 8.60799665,135.989222 10.667222,137.995148 C12.7997572,140.072721 16.0792643,140.726005 18.95356,140.763414 C25.6479966,140.850702 32.0920812,137.686365 38.0160248,134.910279 C44.1170107,132.051344 50.0513065,128.877919 55.8434192,125.436291 C58.7931375,123.683563 61.7109544,121.872502 64.5915882,120.008604 C66.0051797,119.093669 67.4088417,118.163305 68.8019403,117.217935 C69.5998981,116.676455 70.3560248,116.082772 71.1683488,115.602373 C70.7703206,115.231665 70.5926445,114.648761 70.9260248,114.139829 C68.5777854,112.100721 67.6004614,108.461903 67.4861657,105.517583 C67.3938417,103.140948 67.7434896,100.771078 68.0194051,98.4168467 C68.1586305,97.2296921 68.3306023,96.044651 68.5091234,94.8627802 C68.5796868,94.3959074 68.63356,93.8964866 68.7159544,93.4036178 C62.3751797,96.8894181 55.856729,99.9937313 49.1656727,102.751641 C45.7359544,104.165363 42.2622924,105.436424 38.7406727,106.601175 L38.0268954,106.836116 C34.6901525,107.928772 31.2735741,108.96093 27.824053,109.585653 C27.6396164,109.619046 27.4898276,109.346616 27.686729,109.259751 C31.0484192,107.77586 34.5265178,106.524244 37.9387009,105.157653 L38.4994051,104.929183 L38.4994051,104.929183 C38.4349685,104.92559 38.3682079,104.916714 38.2984896,104.900017 C36.2973628,104.41687 34.3118699,103.672283 32.3491938,103.045418 C30.5276445,102.463571 28.4810952,102.098146 26.7784896,101.219774 C26.6475037,101.152142 26.7208136,100.969958 26.8484192,100.961293 C28.7620812,100.828565 30.8394755,101.38653 32.7157431,101.714757 L33.4205945,101.83827 C34.6013652,102.046553 35.8083488,102.270467 36.9833488,102.562483 C37.0258136,102.168737 37.2457431,101.773301 37.5586305,101.541449 C41.0016586,98.9906628 40.6520107,93.838788 41.0202502,90.0397665 L41.2933112,87.2192914 C41.7736119,82.2831559 42.281729,77.3476826 43.0537009,72.4484475 C43.0948981,72.1867958 43.4994755,72.2618252 43.5011657,72.5088937 C43.5409815,78.5819631 43.0827089,84.6270895 42.8530086,90.6906818 L42.8174401,91.685394 C42.6904518,95.4268837 42.5909266,99.311984 40.235391,102.190929 C40.5647572,101.998389 41.0101093,101.998389 41.2769403,102.315837 C41.6048276,102.706201 41.7941234,103.144541 41.7882079,103.574639 C43.916729,102.681896 46.0359544,101.765903 48.1448276,100.831312 C54.9250389,97.826334 61.5630671,94.4635395 68.0255319,90.8249328 C68.7210248,90.4333007 69.3820812,90.7410268 69.7260248,91.2573555 L69.7756649,91.2502322 C69.7839591,91.2491129 69.7923628,91.2482675 69.8010248,91.2480561 L69.8502502,91.2459426 C69.8521516,91.2459426 69.854053,91.246154 69.8557431,91.246154 C70.7654614,90.7460992 72.0047572,91.1022244 72.785391,91.8315943 C72.8084192,91.8535747 72.8280671,91.8772459 72.84856,91.9004945 C73.8368699,91.4566589 74.7596868,90.8574808 75.5971516,90.0980992 C77.3109544,88.5442518 78.7625741,86.6228663 80.0280671,84.696197 C82.35856,81.1476256 84.3381375,77.2015043 87.4862361,74.2804318 C90.044053,71.9071794 93.2151797,70.4296295 96.5420107,69.5020131 C96.5280671,69.4047919 96.5652502,69.3012303 96.6324333,69.2323301 C96.8033488,69.0571207 96.9252502,68.9964632 97.1460248,69.1027724 C97.16356,69.1114377 97.1741234,69.1232733 97.1813065,69.1359544 L97.5059438,68.5810599 C97.6831434,68.2799698 97.8650996,67.9766834 97.9281375,67.8970189 C98.305884,67.4212694 98.6946164,66.9491129 99.0892643,66.4868898 C99.7583488,65.7042596 100.520814,64.9319857 101.403701,64.3892381 C103.336799,63.2012381 105.368983,63.8735434 107.356377,64.5228115 C108.557222,64.915289 109.754053,65.3204475 110.952785,65.7188428 L111.07644,65.7592383 C111.970284,66.0465373 113.016236,66.2978346 113.415954,67.2452146 C113.574194,67.62015 113.598701,68.0092459 113.524968,68.3867176 C122.014546,66.2269289 131.443842,67.2192185 139.728278,69.7545767 C140.046236,69.8517978 140.363771,70.1134495 140.430743,70.457105 C141.379968,75.3268271 141.802715,80.3208232 141.373208,85.273606 C141.002645,89.5487998 140.055743,93.7383966 138.271377,97.6523927 L138.169929,97.873382 C136.492985,101.500682 133.835159,105.972151 129.776095,107.10905 C127.32518,107.795516 124.614405,107.39078 122.114687,107.265027 C119.685321,107.142655 117.202081,107.124902 114.795743,106.74278 C112.652645,106.402506 110.774898,105.441496 109.450461,103.698279 C108.307926,102.194311 107.706236,100.376698 107.213349,98.5685962 C106.987715,98.6404553 106.76356,98.7167528 106.542997,98.8031951 C105.61194,99.1669289 104.823067,99.75406 104.109828,100.444964 C102.603701,101.904127 101.435391,103.676299 99.8595459,105.068675 C98.4330671,106.329168 96.8075741,107.30941 95.0639826,108.063085 C91.4510328,109.624786 87.575172,110.248882 83.7534782,111.07655 L83.4869403,111.134639 C80.6098981,111.766154 77.6732783,112.541598 75.1338417,114.040072 C75.0841938,114.48116 74.8832783,114.896252 74.5613065,115.168048 C75.0091938,115.588847 75.1989121,116.255234 74.8053206,116.880408 C73.7059109,118.625838 71.8121867,119.618955 70.1121078,120.735163 L70.0015178,120.808142 C68.3291234,121.917309 66.6421516,123.004494 64.9414474,124.069489 C61.484053,126.234984 57.9544051,128.281277 54.3748981,130.237536 C48.6176445,133.383907 42.7367995,136.3519 36.7494755,139.04408 C37.1088417,140.812765 36.9775306,142.636525 37.247639,144.417019 L37.289053,144.67107 C37.4044403,145.331793 37.2485755,145.884684 36.7935964,146.316379 L36.7454614,146.360604 L36.7463065,146.354686 L36.7036305,146.393786 L36.6893662,146.405738 L36.6941234,146.402029 C36.6416762,146.450058 36.5875653,146.494759 36.5324146,146.533099 L36.4621516,146.578295 L36.4621516,146.578295 C36.0239356,146.844706 35.4597508,146.841638 35.0110719,146.606459 L34.9598276,146.578295 L34.8736305,146.528839 C34.2808136,146.18772 33.8720107,145.34253 34.1179262,144.67107 C34.7223628,143.020847 34.9507431,141.259665 35.5089121,139.598451 L35.0660952,139.796487 L35.0660952,139.796487 L34.4824552,140.050967 C28.1702164,142.781558 21.1585959,145.081005 14.2809544,143.219516 C11.2420812,142.396729 8.40179947,140.656471 6.88130651,137.819939 C5.38510933,135.028847 5.17363045,131.788001 5.09419383,128.683266 C4.99616566,124.851273 5.20151778,120.960737 5.70665862,117.161716 C6.04574313,114.611563 6.45581355,112.013222 7.08834876,109.489489 C6.76299665,109.202264 6.52384172,108.790342 6.46067271,108.280142 C6.16215158,105.869692 6.68461637,103.363712 7.00447552,100.965731 C7.31694031,98.6243927 7.66215158,96.2877039 8.05257411,93.9582009 C8.84081355,89.2537547 9.75665862,84.559242 10.8229262,79.9099583 C12.7205319,71.6353829 15.2263769,63.5079074 18.2432783,55.5746628 L18.5074768,54.8836268 C21.2952528,47.6324639 24.5230779,40.535857 29.017715,34.1657234 C31.1677854,31.1180522 33.4406023,28.3548585 36.4786305,26.1587176 C39.3248276,24.1010111 42.5352502,22.6194455 45.8483488,21.4870307 C49.1650389,20.3537704 52.574053,19.5943888 56.0432783,19.1220209 C59.5665882,18.6422557 63.2855319,18.3480561 66.572222,16.9024201 C66.1564474,16.1567763 66.5132783,15.1501148 67.2129966,14.6876804 C69.5677854,13.1312968 71.7453206,11.106561 73.855884,9.23568821 Z M149.23737,76.914554 C149.336032,76.7647066 149.570328,76.8593915 149.527018,77.0367144 C148.381736,81.7305931 147.306595,86.4339825 146.604553,91.2174737 C145.337248,99.8510687 145.570364,108.597408 145.673966,117.294859 L145.679201,117.744683 C145.73244,122.429474 145.806384,127.114687 145.961243,131.797575 C146.039412,134.164276 146.19406,136.554225 146.109976,138.922194 C146.06413,140.206781 145.721877,141.421834 145.600609,142.690992 C145.494342,143.800793 145.58899,144.927712 145.642018,146.038992 C145.677511,146.777873 144.58737,146.746382 144.513215,146.038992 L144.418398,145.124024 C144.295218,143.966107 144.142968,142.815266 143.763637,141.706945 C143.307511,140.373959 143.088637,139.064855 142.930398,137.665294 C142.688021,135.520656 142.580233,133.354532 142.486687,131.194808 L142.422722,129.700981 C142.032093,120.675428 142.045784,111.607533 142.678186,102.591434 L142.724412,101.947517 C143.350609,93.4250275 144.437159,84.2167066 149.23737,76.914554 Z M124.824363,23.2005743 C124.525208,23.0775684 124.629997,22.6250675 124.961264,22.7039011 L125.563705,22.8476611 C129.978051,23.905408 134.312281,25.0514332 138.432532,27.0196741 C142.555419,28.9890362 146.045983,31.9291301 148.819504,35.5444882 C154.211053,42.5720968 156.451546,51.1127622 158.220278,59.6453962 C160.185912,69.1267817 161.97556,78.6428287 163.958307,88.1212553 L164.326498,89.8868203 C166.161148,98.7148387 167.893324,107.547861 169.169645,116.480449 L169.261328,117.128308 C170.548409,126.31391 171.322585,135.817582 169.918166,145.027111 C169.640349,146.849161 166.609504,146.395392 166.728025,144.595322 C167.070278,139.391244 167.315349,134.214429 167.078518,128.998727 C166.841476,123.781968 166.352391,118.588034 165.623307,113.416927 C165.009754,109.065161 164.095135,104.767566 163.285736,100.450391 L163.15887,99.7685587 C162.481123,96.0966432 161.782419,92.4283799 161.085256,88.7598731 L160.04342,83.2673166 C158.481935,75.0430344 156.889905,66.811545 155.090983,58.6389461 L154.984227,58.1580442 C153.223771,50.295362 150.628356,42.0591708 145.347743,35.8154393 C139.98894,29.4789461 132.317602,26.287768 124.824363,23.2005743 Z M105.352461,106.598914 C105.481335,106.311689 105.93218,106.34318 106.070771,106.598914 C106.613807,107.601236 106.674155,108.880643 106.77681,110.012166 L106.787602,110.128675 C106.918166,111.509427 107.033729,112.894828 107.104504,114.280018 C107.238659,116.909004 107.302884,119.534609 107.294645,122.166977 C107.286194,124.864652 107.231898,127.559157 107.086546,130.252816 L107.047101,130.974591 C106.914408,133.315432 106.691854,135.926427 105.579997,137.972808 C105.175842,138.716973 104.076616,138.498225 103.842532,137.745818 C103.07563,135.282319 103.469433,132.361458 103.666123,129.838358 L103.818857,127.869601 C103.970098,125.900625 104.114328,123.930906 104.228729,121.959642 C104.38549,119.262601 104.514785,116.563235 104.639222,113.864926 C104.679645,112.988527 104.723353,112.111846 104.769535,111.235446 L104.84056,109.921129 C104.901194,108.821685 104.896123,107.615298 105.352461,106.598914 Z M19.124057,110.090318 L19.4635516,109.762244 C20.5057344,108.741954 21.8227361,107.170574 23.3634121,107.268028 C23.9777783,107.306916 24.3692572,107.817116 24.2418628,108.421789 C23.9697502,109.714408 22.6516516,110.385233 21.7028488,111.174415 C20.6634121,112.038627 19.6837643,112.962439 18.7060178,113.895128 C17.8385999,114.722118 17.0044007,115.572654 16.1902141,116.449705 L15.8858065,116.779848 C15.5939582,117.098447 13.5156954,118.978978 13.740402,119.466885 L13.7526375,119.488725 C13.8151727,119.582141 13.7110178,119.710642 13.6072854,119.677883 C12.7098206,119.394251 12.7658065,118.624725 13.1051023,117.845053 C13.7570741,116.347002 14.8987643,114.961179 15.8957361,113.681875 C16.8900143,112.40565 17.9661793,111.217287 19.124057,110.090318 L19.124057,110.090318 Z M108.604546,72.5222088 C107.910532,70.8812851 105.353983,70.9157352 103.902574,71.0138017 C100.247645,71.2608702 96.2931375,72.1859504 93.0410952,73.8949289 C89.6695503,75.6666817 87.3984874,78.5055392 85.3663894,81.6446689 L85.2713065,81.7920326 C83.2906727,84.8720405 81.3831375,88.5180444 78.281729,90.6357743 C76.7020812,91.7147176 74.8575037,92.6998213 72.940884,93.1265375 C72.8092643,93.3579661 72.5960952,93.5412068 72.3165882,93.6077821 L72.1866566,93.6375267 C71.6407819,93.7580997 70.7927312,93.891528 70.0602502,93.8117352 C70.0651093,94.1701853 70.0613065,94.5258878 70.070391,94.8655277 C70.0961657,95.8387958 70.1071516,96.8162909 70.1071516,97.7901931 C70.1075741,99.8307802 69.9979262,101.875383 70.0830671,103.915759 C70.1584896,105.720479 70.4132783,107.606146 71.2794755,109.219383 C71.9147572,110.402945 72.7532783,111.186209 73.7654614,111.933966 C76.2554614,110.415837 79.0710248,109.490545 81.9286305,108.79478 C85.3845459,107.953395 88.9230671,107.391837 92.300391,106.250968 C93.925884,105.701669 95.4886305,104.982866 96.9045459,104.006639 C98.4072924,102.969966 99.5551093,101.567446 100.736095,100.195571 L100.92069,99.9824285 C102.125943,98.599611 103.441052,97.2764212 105.144405,96.526741 C106.611236,95.8808545 108.544546,95.76588 109.827152,94.7666158 C110.497715,94.2437352 110.553912,93.4849876 110.624476,92.7080639 C109.803067,92.8255747 108.93349,92.6372616 108.114828,92.5413086 L107.690668,92.4915034 C106.916539,92.3994913 106.160212,92.2983533 105.398137,92.1012772 C105.256588,92.0647136 105.256588,91.8512499 105.398137,91.8146862 C106.298771,91.5819896 107.191377,91.4828663 108.114828,91.3746549 L108.331726,91.3475953 C109.167139,91.2379914 110.045239,91.0725677 110.864687,91.2565101 C111.011729,90.6968545 111.224053,90.162561 111.52194,89.6274221 C111.940039,88.8756491 112.731236,88.0232733 112.838137,87.1451129 C112.870039,86.8828271 112.808983,86.5736217 112.685391,86.3417704 L112.642791,86.2627399 C112.590858,86.1694025 112.529311,86.0755395 112.439264,86.0173477 C112.429335,86.028972 112.408208,86.042287 112.362363,86.0566589 C111.731729,86.2553281 111.181588,85.9465453 110.889616,85.4705845 C109.650109,85.6244475 108.297363,85.5726667 107.134968,85.6240248 L105.959692,85.6808923 C104.703891,85.7384887 103.391037,85.7637055 102.210954,85.5098956 C102.046166,85.4746001 101.996307,85.2002675 102.161307,85.1296765 C103.612081,84.5089407 105.37194,84.3109054 106.92518,84.0725023 C107.792645,83.9391403 108.666447,83.8376921 109.536447,83.7203927 C110.115743,83.6421931 110.730532,83.5130581 111.330743,83.4819896 C112.835602,81.6079465 112.024757,78.6515786 109.930461,77.8446432 C109.167574,78.1800561 108.481588,77.9849798 107.648137,77.913332 C106.816166,77.8418956 105.982081,77.7934964 105.146729,77.7970894 C103.472856,77.8044866 101.699053,78.2449407 100.041447,78.0553594 C99.7718699,78.0242909 99.5213065,77.6654181 99.7894051,77.4464592 C101.058274,76.4106177 102.876725,76.0728733 104.48735,75.8521289 L104.821166,75.8074377 C105.361166,75.7366354 106.017785,75.6332851 106.698912,75.5717821 C106.852926,75.271242 107.129264,75.0440405 107.544405,74.9876099 C107.667785,74.9707019 107.791799,74.9607684 107.915602,74.9502009 L107.913701,74.9379426 L107.913701,74.9379426 C108.926095,74.889332 108.882152,73.1786628 108.604546,72.5222088 Z M39.2941938,104.525927 C39.2763065,104.553543 39.256729,104.579845 39.2358996,104.605144 L39.2037713,104.642381 L39.3702502,104.574749 L39.2941938,104.525927 L39.2941938,104.525927 Z M126.271166,68.8554925 C122.009898,68.3974964 117.742504,68.4940835 113.46856,68.6170894 C113.126729,69.7355551 111.93687,70.688745 110.783983,70.7246745 C111.68694,72.0995082 111.780109,73.9602362 111.14694,75.4183418 C112.491236,75.9536921 113.649405,76.915336 114.352504,78.2848859 C115.327504,80.1834455 115.199898,82.2961031 114.236307,84.0507332 C115.058771,84.7955317 115.544053,86.0050894 115.495461,87.1451129 C115.441166,88.4163849 114.683771,89.5023027 114.054405,90.5548271 C113.374335,91.6931598 113.351518,92.6953829 113.142574,93.9702479 C112.83687,95.8360483 111.578983,96.9676178 109.960461,97.6743731 L110.046505,98.0129467 C110.463782,99.6378284 110.982965,101.352337 112.175602,102.540502 C113.709801,104.069061 116.089873,104.054842 118.116886,104.151706 L118.214687,104.156487 C120.070799,104.249312 121.926101,104.358098 123.781565,104.463259 L125.173208,104.541144 C127.309546,104.658655 129.361166,104.672815 131.10518,103.259939 C133.952433,100.953684 135.904335,97.1369093 137.139828,93.7580522 C139.732926,86.6659817 139.763983,78.8830072 138.573701,71.4967371 C134.581799,70.2096138 130.439898,69.3035551 126.271166,68.8554925 Z M90.8333942,80.6216521 L90.864722,80.6239418 C91.7421164,80.7241219 92.3448628,81.4348929 92.5595107,82.2779692 C92.8713417,83.5033782 92.718384,84.6112765 93.4685952,85.7174839 C94.2403558,86.8549712 94.7148628,87.7656796 94.8270459,89.1709477 C94.8731023,89.7492021 94.8519755,90.3259771 94.9806375,90.8919731 L95.0739313,91.2885226 C95.1730036,91.7113629 95.2540675,92.1186378 95.2047924,92.5726307 C95.1597924,92.9866659 94.9582431,93.3091864 94.5431023,93.4419144 C93.1903558,93.8747598 92.1458488,92.8776091 91.7964121,91.6164819 C91.4945107,90.5271825 91.8976093,89.229069 91.4716938,88.2061336 C91.2357079,87.6390808 90.8004966,87.1648107 90.5545812,86.5939536 C90.3109896,86.0281688 90.1886657,85.4370221 90.1495812,84.8219927 C90.0754262,83.6587207 91.1038769,82.2610612 90.5300741,81.2070573 C90.4078886,80.9821806 90.5462661,80.6148543 90.8333942,80.6216521 Z M72.8645107,68.6173641 C73.7805671,68.4311645 74.8197924,68.0044483 75.7231727,68.3590941 C76.1875389,68.5417007 76.4169755,69.1081195 76.0246516,69.5018651 C75.3434886,70.1849372 74.3535052,70.223002 73.4360403,70.3840735 L73.3552854,70.3986244 C72.2704262,70.5994072 71.1836657,70.7898338 70.0954262,70.970327 C68.0480319,71.3095442 65.9957783,71.6094502 63.9363417,71.8643387 C61.8211305,72.1262017 59.7000037,72.3593211 57.5759192,72.5347418 L56.7536196,72.6022341 C54.9593689,72.7457859 53.0923981,72.8540639 51.3319051,72.5791254 C51.07606,72.5391802 51.1172572,72.1665696 51.3319051,72.1012624 C53.2605671,71.5173015 55.3762009,71.3606909 57.3701445,71.1136225 C59.4900037,70.8504913 61.6062713,70.5725657 63.7170459,70.2428592 C65.8244403,69.9135755 67.9290882,69.5601978 70.0259192,69.1696225 C70.9736657,68.9933563 71.9199333,68.8092702 72.8645107,68.6173641 Z M105.918278,66.7424123 C105.114405,66.4577234 104.230039,66.0358682 103.358983,66.1770502 C101.85687,66.4205258 100.519968,67.8845493 99.3309544,68.8487293 L99.9279724,68.7326399 C102.982761,68.1452845 107.028107,67.5125463 109.592433,69.455516 C109.598983,69.4443144 109.604053,69.4331129 109.611447,69.4219113 C109.81849,69.1074221 110.058278,68.8620444 110.320039,68.5929954 C110.345039,68.5693947 110.369241,68.5450189 110.393044,68.520244 L110.534264,68.3698095 L110.211256,68.2578698 C109.519405,68.0132235 108.699782,67.6973024 108.570213,67.6511892 L108.561236,67.6480483 C107.679194,67.349199 106.796095,67.0537313 105.918278,66.7424123 Z M80.8193276,2.68757001 C80.6936234,1.07010621 83.2100319,1.08342128 83.3346797,2.68757001 C83.6065812,6.18964437 82.8187643,9.65853674 81.1231305,12.7288225 C81.1106657,12.7512256 81.0969333,12.7710925 81.0838347,12.7922275 C82.1443981,13.3442745 83.2170037,13.8739183 84.3134826,14.347343 C85.7160882,14.9530729 87.1451023,15.5046972 88.5996797,15.9726268 C89.9154544,16.3961727 91.5365107,16.5633508 92.6427079,17.4446816 C94.9753136,19.3028733 94.0989755,23.1591708 93.6502431,25.6588107 L93.5802363,26.0534088 C93.3568052,27.3396927 93.1952071,28.6593656 93.7372854,29.8938479 C94.3161586,31.2124624 95.4867924,32.1905915 96.5310882,33.1340592 L96.7420092,33.3253781 C97.6671582,34.1685046 98.7242723,35.1930338 99.4028488,36.3360162 C100.022285,35.0548107 100.866722,34.0077814 101.759539,32.8290808 C102.396511,31.9879066 101.94313,31.710615 101.485525,30.8888851 C101.045032,30.0980123 100.829961,29.254936 100.967708,28.3526816 C101.221863,26.6863958 102.55306,25.4827559 103.87813,24.578388 C105.44299,23.5108577 107.189539,22.7199849 108.807215,21.7268499 C112.131299,19.6864741 115.368553,17.3535896 118.285102,14.7626463 C118.365595,14.6909986 118.505032,14.7848381 118.440595,14.8826933 C116.136722,18.3883606 113.435243,21.4176444 110.115173,23.988932 C108.768936,25.0315495 107.354739,25.8963973 105.931071,26.8055135 L105.521771,27.0682645 C104.950149,27.4387014 104.237154,27.9337926 103.978694,28.5644545 C103.718623,29.1987168 104.273201,29.6776365 104.571722,30.2030534 C105.519673,31.8715679 105.062324,33.4283605 103.938498,34.8433499 L103.886159,34.9085563 C102.769398,36.2852921 101.92306,37.5656522 101.518271,39.3245093 C100.648518,43.1027719 101.859974,47.0383392 103.128118,50.5853561 L103.178201,50.7251669 C103.864187,52.6370416 104.593271,54.5349673 105.189257,56.4774878 L105.353242,57.014518 C105.893246,58.801838 106.335442,60.5646566 105.72968,62.4020592 C105.523694,63.0270221 104.671652,63.1747559 104.317778,62.586568 C103.069398,60.5123763 102.758201,58.0163293 101.975666,55.7358596 C101.21299,53.5132999 100.337285,51.3308968 99.6005952,49.0992491 C98.6520037,46.2259418 98.0171445,43.1330416 98.361722,40.1191864 C98.3515812,40.1016444 98.340384,40.085159 98.3319333,40.0665602 L98.0904593,39.5381586 C97.4319918,38.1073753 96.7960121,36.8578286 95.598553,35.7173939 C94.3495389,34.5277031 92.9938347,33.4745446 92.0110178,32.0344037 C89.8762356,28.9061661 91.1965018,25.4262864 91.4543601,22.0058265 L91.4838655,21.5863906 C91.5307062,20.8762125 91.5563756,19.9110595 91.0926375,19.4195387 C90.5710178,18.8662236 89.3477783,18.7250416 88.6556657,18.4800866 C86.8670741,17.8468812 85.1044685,17.1090573 83.4257361,16.2230769 C81.8277079,15.3797892 80.2797502,14.4481571 78.8384826,13.3567442 L78.1079721,12.8069729 C76.9553769,11.9369792 75.7602017,10.9869355 74.9877079,9.80267764 C74.898553,9.6663567 75.0500319,9.44634104 75.2114403,9.51164828 C76.5010178,10.035163 77.6792572,10.8678831 78.8858065,11.5923919 C78.9046093,11.5482197 78.9263699,11.5036248 78.9510882,11.4588185 C80.4439051,8.75607099 81.0578488,5.76166003 80.8193276,2.68757001 Z M122.013004,21.2050682 C122.526807,19.7955731 124.868497,19.9044185 124.775116,21.5791583 C124.703519,22.8657714 124.157471,24.0270762 123.658196,25.1952836 L123.604905,25.3204812 C123.089412,26.5376475 122.49406,27.6804185 121.781666,28.7959254 C120.420468,30.9284499 118.826032,32.907534 117.123004,34.7752365 C115.57906,36.4685751 113.552581,37.5039802 111.21744,37.331941 C110.233567,37.2594479 109.240398,37.0089978 108.378215,36.517397 C107.354201,35.9332248 106.242088,34.1792287 104.935609,34.6040428 C104.809271,34.6450448 104.691384,34.4599019 104.800609,34.3721915 C106.308849,33.1571387 108.02075,35.0411152 109.464764,35.4950956 C111.640609,36.1788138 113.873497,35.4228138 115.27399,33.6631113 C116.736173,31.8258432 118.081947,29.7687708 119.310891,27.7683403 C119.934976,26.7525908 120.504342,25.6983755 120.996173,24.6118236 C121.49244,23.515127 121.605257,22.3233226 122.013004,21.2050682 Z M118.505687,12.530745 C118.442307,12.3360913 118.683997,12.1509485 118.854912,12.2621187 C119.845968,12.9075825 120.704771,13.760381 121.618926,14.507927 C122.633222,15.3372655 123.654912,16.149696 124.692447,16.9496569 C126.204912,18.1160992 124.450757,20.2634181 123.119349,18.9891872 C121.297377,17.2461814 119.301954,14.9669798 118.505687,12.530745 Z M113.064468,5.70846316 C113.467092,4.15529846 115.848413,4.7957932 115.501388,6.33081006 L115.490032,6.37759819 C114.832766,8.913104 115.768865,11.4944058 117.767223,13.1381551 L117.840807,13.1978722 C119.105032,14.2100287 117.313905,15.9794534 116.062145,14.9770189 C113.329398,12.7891207 112.192567,9.07252578 113.064468,5.70846316 Z" id="ðŸ–-Ink" fill="#000000"></path>
                    </g>
                    <g id="head/Short-1" transform="translate(78.591549, 38.043053)" fill-rule="evenodd">
                        <path d="M51.0275758,15.9061419 C62.9981788,15.9061419 75.3797197,25.2080901 79.7676814,31.1439108 C84.8414879,38.0075089 88.8439202,70.956317 86.9662925,82.1365674 C85.0886649,93.3168178 75.7620655,105.502635 59.5712617,105.502635 C43.3804578,105.502635 33.5272364,103.503392 33.1321475,100.599458 C32.8687549,98.6635022 29.3091008,92.3075386 22.4531852,81.5315671 C15.4412308,79.5543896 11.9214562,76.2044004 11.8938616,71.4815998 C11.8666608,66.7587992 13.7454869,63.5382528 17.5303398,61.8199609 C16.1808544,43.1817886 17.2054605,31.4364602 20.6041581,26.5839757 C25.7022045,19.305249 39.0569728,15.9061419 51.0275758,15.9061419 Z" id="âœ‹-Skin" fill="#EDB98A"></path>
                        <path d="M44.9328731,13.1038565 L45.1462646,13.1047961 C58.3910257,13.1905832 71.8616635,19.30049 79.7414396,29.9736843 L79.9785033,30.2985097 C79.9913635,30.3154177 80.2270951,30.6672843 80.282842,30.7675636 C80.6094983,31.3551626 80.9941947,31.9049401 81.2893592,32.502526 C81.5385123,33.0097667 81.7042079,33.5763951 81.8873426,34.1166643 L81.9429071,34.2778685 C82.4132507,35.6262834 82.8093851,36.9873793 83.1595602,38.3717237 C83.8381959,41.0664399 84.3673588,43.8034262 84.8819751,46.534072 C86.7204317,56.312036 87.9225559,66.229692 88.5282728,76.1602275 L88.647822,78.1570153 C88.7700232,80.2280022 88.862443,82.307902 88.6303883,84.3721151 C88.3624337,86.7751679 87.673257,89.0302755 86.6296886,91.2071836 C85.6681299,93.2150114 84.4284972,95.0748939 83.0098767,96.7847178 C82.2509179,97.6998646 81.4455782,98.5896493 80.4547153,99.2594184 C79.6660306,99.7922325 78.7447389,100.143074 77.8571788,100.481234 C76.4132596,101.92687 74.5601352,103.019551 72.7491751,103.892428 C69.7639371,105.327497 66.527821,106.12006 63.253757,106.517399 C59.9059054,106.920867 56.5243222,106.823857 53.2038774,106.24687 C50.0310079,105.69736 46.6302399,104.29188 44.6761318,101.614072 C44.5074743,101.3837 44.8213881,101.166009 45.0279935,101.261117 C50.6993133,103.892428 57.0722483,104.579317 63.253757,103.74871 C66.1375897,103.361939 68.9752524,102.563035 71.6086287,101.322409 C73.8306914,100.276225 75.7046872,98.7545025 77.6990624,97.3764986 C78.0871855,96.8586904 78.4791034,96.3493362 78.9262566,95.8759115 L79.6238308,95.142552 C80.1452462,94.5916896 80.6572179,94.0334247 81.1228099,93.4305886 C82.560826,91.5728196 83.7517589,89.4656571 84.5383354,87.2485926 C86.0679747,82.9329403 85.6542995,78.2483136 85.3839684,73.750767 L85.3605408,73.3544243 C85.0822559,68.5440916 84.628778,63.7506669 84.0007396,58.9741503 C83.3722795,54.1912932 82.5732645,49.4274575 81.6289933,44.697438 C81.1630769,42.3662442 80.6400278,40.049845 80.1785386,37.7186513 C79.9400991,36.5160681 79.7737606,35.2965769 79.5924538,34.0813127 C79.4826156,33.3415867 79.4847238,32.6293362 79.4826156,31.9065182 C79.4617442,31.9403342 79.4362348,31.9720368 79.4109361,32.0037393 C79.4870428,32.1833871 79.4343374,32.4137589 79.2488141,32.5194341 C78.5467772,32.9209996 77.7372211,32.7857354 76.946639,32.7878489 C76.1073571,32.7920759 75.2682859,32.7941894 74.4292148,32.7963029 C73.555358,32.7994732 72.6815013,32.7994732 71.8076445,32.7981523 L69.1860743,32.7920759 L58.6997933,32.7603734 C51.8323927,32.7397299 44.8485377,33.0134725 38.003224,32.3644801 L37.4805996,32.3127521 C36.9427277,32.2506537 30.8721962,31.5064342 29.2305705,31.3142224 L29.1807226,31.3083969 C26.1805163,30.9617824 23.2228959,30.4482012 20.3072291,29.6788861 C21.2599333,30.0614301 22.1772193,30.5771249 23.1214906,30.9681229 C24.340252,31.4711366 25.590215,31.9107452 26.8405996,32.3313323 C29.4063021,33.195755 31.9760101,34.0348157 34.5311715,34.9267139 C35.2637565,35.1819828 36.9284338,41.4734401 37.3480684,42.4687532 L37.3604013,42.4972814 C37.5733314,42.9770466 37.8665846,43.5033088 37.704041,44.0485926 C37.3458546,45.2532892 35.4461385,46.1451875 34.5039754,46.8257354 L33.5351434,47.5266258 L33.5351434,47.5266258 L32.268204,48.4455319 C31.7485304,48.8186867 31.2687581,49.1042028 30.5888021,48.8906278 C30.5866938,48.8885143 30.5847964,48.8885143 30.5826882,48.8885143 C31.1645567,51.5959115 31.447058,60.3521542 31.533495,61.8886708 C31.60918,63.2265182 32.0013087,64.9405691 31.3772759,66.1600603 C31.2297006,66.4496102 30.8462156,66.6778685 30.5192308,66.65462 C29.0940748,66.5468313 27.6691297,66.4411562 26.2439737,66.335481 C25.8621752,66.305892 25.5143191,66.0882012 25.4089081,65.6993166 L25.4046917,65.6781816 L25.4046917,65.6781816 C25.3585217,65.6908626 25.3058162,65.6824086 25.2615436,65.6359115 C25.1835395,65.5577119 25.1034272,65.4816258 25.0209959,65.4076532 C23.1448918,63.7295319 20.2102511,63.3152853 17.8952159,64.188162 C16.6810926,64.6446787 15.3002092,65.4139937 14.4440615,66.4115671 C13.4932547,67.5190427 13.2889683,69.0661268 13.2866493,70.4800603 C13.2824328,73.2064791 14.2650737,75.9667139 16.2697791,77.858299 C18.1119262,79.5946656 20.48884,80.1000154 22.8802092,80.5969679 L23.1364589,80.6502364 C23.6822768,80.7643656 23.8553616,81.5801777 23.4442589,81.9225652 C24.5384245,82.9962247 25.4829066,84.2770074 26.4041983,85.4584556 C27.6274923,87.0257941 28.7974645,88.6552902 29.9355499,90.2883382 L30.4849839,91.0783064 C32.4429199,93.8795542 35.2769328,97.7379922 34.0443837,101.239982 C33.8799426,101.711293 33.1926633,101.880373 32.9247086,101.385814 C32.0455813,99.7584164 31.5543663,97.9661659 30.7195116,96.3197472 C29.8996253,94.7050309 28.8792473,93.2086708 27.8670914,91.7123108 L27.2833246,90.8451483 C26.3113722,89.3969096 25.3484725,87.9330153 24.4559932,86.4412344 L23.8345373,85.4083157 C23.2506175,84.4329559 22.6726619,83.4250433 22.2423633,82.3769683 C19.3646445,83.0723108 16.2360476,81.5252266 14.2142656,79.4645613 C11.6719644,76.8691796 10.4766043,73.0458528 10.8052756,69.4507843 C10.9783604,67.5697667 11.5328219,65.7500407 12.9071699,64.3973988 C13.0463123,64.2621346 13.1919902,64.133211 13.3416738,64.0042873 C13.2889683,63.9768117 13.2446957,63.9345417 13.2234027,63.8838176 C12.302111,61.6900016 12.1060467,59.0755984 12.0280426,56.7127022 C11.9460328,54.2694928 11.9987383,51.8199429 12.1840508,49.3809605 C12.5236848,44.9087883 13.3288136,40.4598646 14.6066051,36.1609996 C16.4974667,29.8078098 19.7464429,23.5877706 24.9368779,19.3248352 C30.4717559,14.7781198 37.8871419,13.0920688 44.9328731,13.1038565 Z M17.3810845,68.6730153 C18.1627296,68.3173954 19.3821838,68.950832 20.0780609,69.3544825 L20.1236665,69.3810387 C22.17918,70.5793949 23.6424947,72.6210387 24.3190222,74.8824869 C24.7533153,76.3408039 22.314106,76.9220172 22.1075005,75.4932892 C21.9390538,74.3287491 21.5509307,73.2381816 20.9123512,72.2638568 C20.7603486,72.3145808 20.6127733,72.3800994 20.4801663,72.4646395 C19.9720856,72.794346 19.6767241,73.3607648 18.9706816,73.2762247 C18.4476325,73.2149331 17.9121449,72.8514106 17.9479846,72.2511757 C18.0051173,71.2599429 18.8018132,70.8647178 19.6558527,70.8139937 C19.533945,70.70462 19.4109699,70.596435 19.2850598,70.4921138 L19.1472131,70.3810893 C18.9909448,70.2679376 17.3202851,69.112777 17.2722389,69.4098752 L17.2712463,69.4275358 C17.2733545,69.545892 17.1152381,69.6135241 17.0351258,69.5247569 C16.7125683,69.1781425 17.0121462,68.8420955 17.3810845,68.6730153 Z" id="ðŸ–-Ink" fill="#000000"></path>
                    </g>
                    <g id="face/Smile" transform="translate(112.183099, 77.354207)" fill="#000000" fill-rule="evenodd">
                        <path d="M30.968993,50.9198978 C29.548794,50.3403012 28.2816173,49.3734958 27.3551889,48.1384646 C27.0331038,47.7091169 26.9495926,47.2557326 27.017159,46.8410547 C27.0931327,46.3747786 27.3688808,45.9521824 27.7449394,45.6687178 C28.1221628,45.3843752 28.5940214,45.2441445 29.0502103,45.3156301 C29.4466117,45.3777469 29.8412104,45.5948709 30.1535058,46.0451781 L30.2187521,46.1352289 C30.7695298,46.8806513 31.4872438,47.4922614 32.3050288,47.8864795 C33.0932406,48.2664417 33.9747757,48.4437847 34.8870208,48.3406561 C36.6244504,48.1443157 37.8219743,47.2043274 39.0948115,45.9278391 C39.2525834,45.7666792 39.4104563,45.6004672 39.5690946,45.4315797 C39.6692778,45.278484 39.8083069,45.1800892 39.962667,45.1284632 C40.1340565,45.0711416 40.327938,45.0743848 40.5055187,45.1363808 C40.6767961,45.1961763 40.8299095,45.309486 40.9325762,45.4602937 C41.0301525,45.6036243 41.0854754,45.7806897 41.0675245,45.9843589 C40.9510195,47.3072301 40.2596776,48.4878363 39.2776553,49.4148615 C38.1869942,50.4444414 36.7412431,51.1567117 35.3801317,51.4065272 C33.8805866,51.6817086 32.3525901,51.4845569 30.968993,50.9198978 L30.968993,50.9198978 Z M36.0875289,30.5120405 C37.6828906,31.482148 40.1137318,33.7442494 38.3974899,36.149264 C36.3773089,38.2698449 33.4687045,35.8384541 32.0353946,34.7388307 C30.7063626,33.8866164 29.2131206,36.0784478 30.4461973,37.0735516 C40.8033244,44.7445605 45.006466,30.7657101 36.8944406,29.3714319 C36.0012775,29.2177885 35.6695544,30.2119271 36.0875289,30.5120405 Z M17.5274577,21.5886716 C17.7037243,19.3998697 21.0359789,18.9028321 21.3674577,21.0687499 C21.6642887,23.0089456 21.3148521,24.7912626 20.4412606,26.5380728 C19.6065423,28.2068947 17.5085456,27.4283107 17.3498837,25.9087021 C17.1372039,23.8717299 17.4178099,22.9502317 17.5274577,21.5886716 Z M42.8930282,20.6196517 C43.3576056,20.0109628 44.0283803,19.5954481 44.8320423,19.8302583 C47.3429577,20.5642779 46.6028873,24.1303914 45.7210563,25.8662114 C45.2419014,26.8088337 43.6930986,27.0478708 42.993169,26.2178982 C41.8523239,24.864411 41.3059859,22.1614521 42.756338,20.8282544 C42.7956338,20.7593542 42.8393662,20.68982 42.8930282,20.6196517 Z M20.4058944,12.0111429 L20.802522,11.9416942 C22.0295218,11.7294045 23.5551549,11.5254176 24.4231479,12.5122544 C24.8835,13.0355577 25.0419507,14.0081918 24.4231479,14.509092 C23.3346972,15.3904227 22.1313169,15.0488806 20.8269507,15.1234873 C19.7520211,15.1852016 18.7189225,15.3631585 17.6835,15.6592603 C15.4119507,16.3087397 13.5610352,17.4944149 11.6209648,18.7963327 C11.3663873,18.9671037 11.1065282,18.6414129 11.228007,18.4032211 C12.3479366,16.208771 14.5182887,14.4061644 16.6922324,13.3073542 C17.8525141,12.7208571 19.1222324,12.2343288 20.4058944,12.0111429 Z M40.6041287,11.0281289 L40.9077055,11.0902829 C44.2113469,11.7811043 48.5035506,13.1610768 50.0679842,16.4073021 C50.1275964,16.8663298 50.0646105,16.9647086 50.0133917,17.0289838 L49.9963385,17.0503723 C49.9541341,17.1052595 49.9204583,17.1809212 49.7215736,17.2433957 C49.6663832,17.2302408 49.6106433,17.216308 49.5543131,17.2015401 C48.8372041,17.0135386 48.2698321,16.7545401 47.720556,16.4857982 L47.1250012,16.192275 C46.4340388,15.8533498 45.7369757,15.5267598 44.9982488,15.2856588 C43.4217423,14.7712438 41.8001698,14.4088706 40.1534741,14.2153715 C39.7965654,14.1734678 39.4528848,14.0529641 39.1817455,13.8464404 C38.92438,13.6504079 38.7277692,13.3789964 38.6381257,13.0182314 C38.5219478,12.5513438 38.5553348,12.1978716 38.8057421,11.7766707 C38.9940329,11.4603578 39.263447,11.2411116 39.5728025,11.115213 C39.888177,10.9868648 40.2472278,10.9566068 40.6041287,11.0281289 Z" id="ðŸ–-Ink"></path>
                    </g>
                    <g id="facial-hair/Full-2" transform="translate(104.577451, 109.479380)" fill="#000000" fill-rule="evenodd">
                        <path d="M52.4221901,23.6127945 C51.6848662,23.3714325 50.9606408,23.0905479 50.2330352,22.8198082 C46.5128239,20.9504149 42.0189507,20.611409 38.1174718,22.1857573 C36.2025423,22.958454 34.4169085,24.3468141 32.4954296,25.2566771 C32.0390915,25.4270254 31.5789507,25.5817339 31.1137394,25.7115029 C30.8285282,25.6121683 30.5433169,25.5064932 30.2602183,25.400818 C28.2221197,24.6323483 26.3050775,23.6844423 24.4438099,22.6416399 C24.2452183,22.3620235 24.0392324,22.090227 23.8178239,21.8292094 C25.1646549,21.6379374 26.4833873,21.3200665 27.6764155,20.9920509 C31.3397958,19.988137 34.7919085,18.3522857 38.4426127,17.3039883 C41.8419085,16.3254364 45.5306408,15.7907202 48.9447254,17.0059843 C50.5651479,17.5829706 51.9912042,18.593225 53.5672606,19.273773 C54.3827535,19.6246145 55.3609225,19.9691155 56.3137394,20.0198395 C55.6989507,21.4929511 54.9214859,22.8688415 53.8588099,24.0143601 C53.3728944,23.9107984 52.8912042,23.7649667 52.4221901,23.6127945 Z M60.349162,12.0747593 C60.0229648,12.3459217 58.6767676,13.2209119 58.2400775,13.7425245 C58.1272606,13.6996204 58.0150775,13.6556595 57.9035282,13.6104305 C57.7114859,13.3745636 57.4285986,13.271002 57.1402183,13.2773425 C55.1270493,12.340638 53.3348662,11.0169511 51.7355704,9.35721722 C50.5989507,8.17999609 49.4348662,6.94782387 47.9158521,6.26516243 C46.1264155,5.45780431 44.3665563,5.82978082 42.4862746,5.95236399 C40.4855704,6.08551468 38.5102183,5.51698239 36.5116268,5.78962427 C35.0496549,5.99040705 33.6806408,6.60966341 32.4975423,7.48254012 C30.0827535,9.26422309 28.4179648,11.7666106 26.3771197,13.9244971 C24.0616268,16.3719335 21.2137394,17.9359256 18.046838,18.7348297 C18.0088099,18.7094677 17.968669,18.6841057 17.9285282,18.6608571 C15.5940211,16.5473542 13.4855704,14.1612094 11.6200775,11.6186654 C9.7989507,9.13529941 4.99683803,-2.04301761 3.83697887,-3.02368297 C3.35528873,-3.43158904 2.82711972,-3.60700978 2.32219014,-3.59221526 C1.40740141,-3.57108023 0.562330986,-2.93491585 0.184161972,-1.93311546 C-0.458091549,-0.229632094 -0.136964789,1.97263796 -0.0862605634,3.75432094 C-0.0228802817,5.93545597 0.12078169,8.1144775 0.348950704,10.285045 C0.575007042,12.4302505 0.875007042,14.5691155 1.2489507,16.6931859 C1.43697887,17.7668454 1.6461338,18.8383914 1.87641549,19.9057104 C1.94824648,20.2417573 2.03909155,20.5418748 2.1489507,20.8208571 C2.26092254,21.3471194 2.38134507,21.8712681 2.51021831,22.3911898 C3.35106338,25.7960431 4.67782394,29.2051233 7.21092254,31.7180783 C9.84754225,34.3367084 13.4306408,36.0761213 16.7581056,37.6316595 C19.9271197,39.113225 23.2482465,40.4299374 26.655993,41.4613268 C29.6158521,42.8034012 32.7848662,43.8643796 35.9665563,44.4223444 C39.4693732,45.0373738 43.1517676,45.0754168 46.534162,43.8580391 C48.196838,43.2599178 49.768669,42.4250841 51.1947254,41.3852407 C53.2165563,40.3348297 55.0355704,38.8913072 56.525007,36.9807006 C59.192706,33.5565513 60.4660235,29.4012411 61.0231856,25.1164508 C61.1657905,24.0197643 61.7019307,19.8165841 61.7440898,19.1621818 C61.8802406,17.0488169 62.0163914,14.9355171 62.1525423,12.8220939 C62.2167676,11.8247319 60.9931056,11.5400431 60.349162,12.0747593 Z" id="ðŸ–-Ink"></path>
                    </g>
                    <g id="mask/*no-mask" transform="translate(83.450704, 97.432485)"></g>
                    <g id="accessories/*-None" transform="translate(88.521127, 88.978474)"></g>
                </g>
            </g>
        </g>
    </g>
</svg>
